<svg xmlns="http://www.w3.org/2000/svg" width="518" height="134" fill="none"><path fill="#09090B" d="M66.818 133.636c36.903 0 66.818-29.916 66.818-66.818C133.636 29.9154 103.721 0 66.818 0 29.9155 0 0 29.9154 0 66.818c0 36.902 29.9155 66.818 66.818 66.818Z"/><path fill="url(#a)" d="M126.291 63.7724v-.0896c-.054-.9853-.125-1.9705-.233-2.9558-.036-.3761-.089-.7523-.125-1.1285-.054-.3762-.09-.7345-.143-1.1107-.054-.3762-.108-.7344-.162-1.1106-.053-.3583-.125-.7345-.197-1.1107-.036-.2508-.089-.4836-.143-.7344-.036-.2508-.09-.4837-.143-.7345-.09-.4657-.197-.9494-.305-1.4152-.107-.4657-.215-.9315-.34-1.3972-.233-.8957-.484-1.7914-.753-2.6692H79.9484l.7703 1.3615 1.2361 2.2034 24.4522 43.4406 5.356 9.5125c1.989-2.293 3.816-4.73 5.446-7.3091 1.397-2.2034 2.651-4.5143 3.744-6.8968.179-.3762.34-.7524.501-1.1286.018-.0537.054-.1074.072-.1612.09-.197.179-.412.269-.627.018-.0537.036-.1074.054-.1612.089-.197.161-.412.25-.609.09-.1971.162-.4121.251-.6091.054-.1254.09-.2508.143-.3762.144-.3404.269-.6807.395-1.039.179-.4837.34-.9673.501-1.451.143-.412.269-.8419.412-1.2719.126-.412.251-.8419.376-1.2718.323-1.1107.609-2.2572.842-3.4036.054-.215.09-.43.144-.6449.125-.5733.232-1.1644.34-1.7556.072-.4299.143-.8598.215-1.2897.036-.2329.072-.4658.107-.6987.036-.2329.072-.4657.09-.6986v-.0358c0-.0538 0-.1075.018-.1613v-.0358c.054-.4478.107-.8957.161-1.3614v-.0359c.054-.4657.09-.9315.125-1.3972v-.3404c.036-.3403.054-.6986.072-1.039v-.2687c.054-1.0031.072-2.0242.072-3.0453 0-1.0211-.036-2.0422-.072-3.0453v.1075Z"/><path fill="url(#b)" d="M58.1124 46.6112h64.7226c-.108-.3046-.215-.5912-.323-.8778-.107-.3045-.215-.5911-.34-.8778-.43-1.0748-.896-2.1317-1.38-3.1707-.089-.2329-.197-.4478-.322-.6807-.161-.3224-.305-.6449-.484-.9673-.394-.7703-.788-1.5406-1.218-2.293-.161-.2866-.322-.5732-.484-.8419-.304-.5195-.609-1.0211-.913-1.5227-.197-.3045-.376-.609-.573-.8957-.287-.4299-.574-.8598-.86-1.2898-.233-.3403-.466-.6807-.699-1.0031-.34-.4837-.681-.9494-1.057-1.4152-.251-.3224-.501-.6449-.752-.9673-.287-.3583-.573-.7166-.86-1.0569-.018-.0359-.036-.0538-.072-.0896-.233-.2687-.447-.5195-.68-.7882-.377-.4479-.771-.8957-1.183-1.3256-.286-.3046-.573-.6091-.842-.9136-.25-.2508-.483-.5016-.734-.7524-.161-.1612-.322-.3224-.484-.4837-.698-.6986-1.433-1.3793-2.185-2.0421-.573-.5195-1.165-1.0032-1.756-1.5048-1.128-.9315-2.275-1.8092-3.475-2.6512-.376-.2687-.752-.5195-1.129-.7882-.0712-.0358-.1249-.0896-.1966-.1254-.3224-.2149-.6628-.4299-.9852-.6449-.3941-.2508-.8062-.5016-1.2003-.7523-.3941-.2508-.8061-.4837-1.2181-.7166-.3404-.197-.6807-.3941-1.0211-.5732-.3762-.215-.7524-.412-1.1285-.6091-.1971-.1075-.4121-.215-.627-.3224-.3225-.1613-.6628-.3225-.9853-.4837-.3045-.1433-.5911-.2866-.8957-.4299-.0358 0-.0895-.0359-.1433-.0538-.2328-.1075-.4657-.2149-.6986-.3224-2.9737-1.3256-6.0727-2.40046-9.2614-3.22449-.2329-.07165-.4657-.12539-.6986-.17913-.2329-.05374-.4658-.10748-.7166-.16123l-5.5711 9.54795-16.5702 28.2499Z"/><path fill="url(#c)" d="m88.4405 70.0777-.7703 1.3077-1.2898 2.2033-3.1886 5.4279L61.355 116.223l-5.3562 9.136s.1433.036.215.036h.0358c.0359 0 .0717 0 .1254.018.2329.036.4658.09.6987.125l.6269.09c.0359 0 .0896 0 .1434.018.0716 0 .1433.036.2328.036.3941.053.7703.107 1.1644.161.4658.054.9315.107 1.4152.161h.2329c.412.036.8419.09 1.2539.108h.1613c.3582.035.6986.053 1.0569.071.1612 0 .3045.036.4657.036 1.0032.054 2.0064.072 3.0095.072 1.0032 0 2.0422-.036 3.0633-.072h.0358c1.0032-.054 1.9884-.143 2.9916-.233l.5374-.054c.3224-.035.6449-.071.9494-.107.5016-.072.9853-.143 1.4868-.215.1971-.036.3941-.054.5912-.09.2508-.035.5195-.089.7703-.125.1791-.036.3583-.072.5374-.107.0358 0 .0896 0 .1254-.018.3583-.072.7345-.144 1.0927-.215.3941-.09.7882-.162 1.1823-.251.3046-.072.627-.143.9315-.233.2508-.054.4837-.125.7166-.179.0716 0 .1433-.036.215-.054.4299-.107.8598-.233 1.2897-.358.6449-.197 1.2898-.394 1.9347-.609.3045-.09.6091-.197.9136-.305.4658-.161.9315-.34 1.3794-.501.4836-.179.9673-.376 1.4331-.556 7.7387-3.117 14.6712-7.828 20.4212-13.704l-4.89-9.655-16.1045-28.6261v.0538Z"/><path fill="url(#d)" d="m44.533 64.3816.7882-1.3256 1.2718-2.1855 25.1508-42.9032 5.7145-9.74502c-.197-.03583-.3762-.07165-.5732-.08957-.2329-.03582-.4658-.08957-.6987-.12539-.1612-.03583-.3045-.05374-.4657-.07166-.3583-.05374-.7345-.10748-1.1107-.16122-.1075 0-.2149-.03583-.3224-.03583-.412-.05374-.8061-.10748-1.2181-.14331-.5554-.05374-1.1107-.10748-1.6839-.14331-.2508 0-.5016-.03582-.7524-.05374-.2508 0-.5016-.03582-.7524-.03582-1.0211-.05374-2.0421-.07166-3.0632-.07166-1.0211 0-2.0422.03583-3.0633.07166-.5015.03582-1.0031.05374-1.5226.08956-.2508 0-.5016.03583-.7524.07166-.2508.01791-.5016.05374-.7524.07165-.5016.05374-1.0031.10749-1.4868.17914-.5016.07165-1.0032.14331-1.4868.21496-.4658.07166-.9495.14331-1.4152.23288-.4658.08957-.9136.16122-1.3615.25079-.4836.08957-.9673.19705-1.4331.30454-.5374.12539-1.0569.25079-1.5943.3941-.2508.07165-.5016.12539-.7524.19705-1.5047.41201-2.9736.85984-4.4067 1.37934-.9674.3404-1.9168.6986-2.8483 1.1107-7.9895 3.3319-15.1012 8.3656-20.8874 14.6354l5.1413 9.4763 16.3731 28.429-.0358-.0179Z"/><path fill="url(#e)" d="M74.9864 87.5798h-4.0843l-49.3164.0358H11.0166c.0358.1075.0717.1971.1075.3045.0716.1971.1433.3762.2149.5554.0896.2328.1792.4478.2688.6628.1433.3403.2866.6807.4299 1.021.1254.2867.2508.5733.3583.842 6.3056 14.2057 18.0211 25.4737 32.5312 31.1877.2866.107.5732.215.8419.34.8599.323 1.7377.627 2.6154.914.5375.179 1.0749.34 1.6302.502.3404.107.6986.197 1.039.304.215.054.412.108.627.161.1612.036.3045.09.4657.126.1792.053.3583.089.5195.143.0538 0 .1254.036.1792.036l5.5711-8.867 16.5881-28.2682h-.0179Z"/><path fill="url(#f)" d="m53.15 84.8384-.7703-1.3436-1.2719-2.1854L26.369 38.3166l-5.4278-9.4405c-1.3257 1.6122-2.5796 3.2961-3.744 5.0337-.9315 1.3973-1.8093 2.8304-2.6154 4.3172-.1971.3583-.3762.6987-.5732 1.0569 0 .0359-.0359.0717-.0538.1254-.1791.3583-.3583.6987-.5374 1.0569-.3762.7524-.7345 1.5227-1.0748 2.293-.0896.2149-.1971.412-.2687.627-.1433.3224-.2866.6449-.412.9852-.1075.2508-.1971.4837-.3046.7345-.0895.2329-.1791.4657-.2687.6986-.2329.5912-.4478 1.1823-.6449 1.7914-.1254.3762-.2508.7523-.3762 1.1285-.37614 1.1823-.7165 2.3646-1.02103 3.5828-.08957.3762-.19706.7523-.26871 1.1464-.07165.3046-.14331.627-.21496.9495-.07166.2866-.1254.5732-.17914.8419-.07166.3404-.14331.6807-.19705 1.0211-.08957.4837-.16123.9852-.25079 1.4689-.07166.4658-.14331.9136-.19705 1.3794v.0358c0 .0896-.03583.197-.03583.2866-.05374.3762-.08957.7703-.1254 1.1465v.2329c-.03582.4478-.08957.8956-.12539 1.3435 0 .0716 0 .1612-.01792.2329-.03582.4478-.05374.8777-.08957 1.3256-.05374 1.021-.07165 2.0421-.07165 3.0632 0 1.0211.03583 2.0063.07165 2.9916v.1254c.03583.4836.05375.9852.08957 1.4689 0 .2508.03583.5195.07166.7703.01791.215.03583.4478.07165.6628 0 .0896 0 .197.03583.2866.03583.3404.07165.6628.10748.9853.07166.5553.14331 1.1106.23288 1.648.01791.1612.03583.3225.07166.4837.05374.3224.10748.6449.16122.9494.05374.3045.10748.5912.16122.8957.23288 1.2181.50158 2.4183.80612 3.6186.19705.6986.37618 1.3972.59115 2.0958.10748.3583.21496.7166.3404 1.0749h10.372l32.7283-.0359-.0358.0359Z"/><path fill="#fff" d="M176.312 41.0523h16.475c3.737 0 6.893.5697 9.468 1.709 2.597 1.1393 4.569 2.8255 5.913 5.0586 1.367 2.2103 2.051 4.9333 2.051 8.1689 0 2.2787-.467 4.3636-1.402 6.2549-.911 1.8685-2.233 3.4636-3.965 4.7852-1.709 1.2988-3.759 2.2672-6.152 2.9052l-1.846.7178h-15.483l-.068-5.3662h11.689c2.37 0 4.341-.4102 5.913-1.2305 1.572-.8431 2.757-1.971 3.555-3.3838.797-1.4127 1.196-2.9736 1.196-4.6826 0-1.914-.376-3.5888-1.128-5.0244-.752-1.4355-1.937-2.5407-3.554-3.3154-1.595-.7975-3.658-1.1963-6.187-1.1963h-9.878v44.3652h-6.597V41.0523Zm29.087 49.7656L193.3 68.2593l6.87-.0341 12.27 22.1826v.4101h-7.041Zm28.438.6836c-2.575 0-4.911-.4329-7.007-1.2988-2.074-.8887-3.862-2.1305-5.366-3.7256-1.481-1.595-2.621-3.4863-3.418-5.6738-.798-2.1875-1.196-4.5801-1.196-7.1778V72.19c0-3.0078.444-5.6852 1.333-8.0322.888-2.3698 2.096-4.375 3.623-6.0156 1.526-1.6407 3.258-2.8825 5.195-3.7256 1.937-.8431 3.942-1.2647 6.016-1.2647 2.643 0 4.921.4557 6.835 1.3672 1.937.9115 3.521 2.1875 4.751 3.8281 1.231 1.6179 2.142 3.5319 2.735 5.7422.592 2.1875.889 4.5801.889 7.1778v2.8369h-27.618v-5.1612h21.294v-.4785c-.091-1.6406-.433-3.2357-1.025-4.7851-.57-1.5495-1.481-2.8256-2.735-3.8282-1.253-1.0026-2.962-1.5039-5.126-1.5039-1.436 0-2.758.3076-3.965.9229-1.208.5924-2.245 1.4811-3.111 2.666-.866 1.1849-1.538 2.6318-2.016 4.3408-.479 1.709-.718 3.68-.718 5.9131v1.4355c0 1.7546.239 3.4066.718 4.9561.501 1.5267 1.219 2.8711 2.153 4.0332.957 1.1621 2.108 2.0736 3.452 2.7344 1.367.6608 2.917.9912 4.649.9912 2.233 0 4.124-.4557 5.673-1.3672 1.55-.9115 2.906-2.1305 4.068-3.6572l3.828 3.042c-.798 1.2077-1.812 2.3584-3.042 3.4521-1.23 1.0938-2.746 1.9824-4.546 2.666-1.777.6836-3.885 1.0254-6.323 1.0254Zm37.119 0c-2.575 0-4.91-.4329-7.007-1.2988-2.073-.8887-3.862-2.1305-5.366-3.7256-1.481-1.595-2.62-3.4863-3.418-5.6738s-1.196-4.5801-1.196-7.1778V72.19c0-3.0078.444-5.6852 1.333-8.0322.888-2.3698 2.096-4.375 3.623-6.0156 1.526-1.6407 3.258-2.8825 5.195-3.7256 1.937-.8431 3.942-1.2647 6.016-1.2647 2.643 0 4.922.4557 6.836 1.3672 1.936.9115 3.52 2.1875 4.751 3.8281 1.23 1.6179 2.142 3.5319 2.734 5.7422.592 2.1875.889 4.5801.889 7.1778v2.8369h-27.618v-5.1612h21.294v-.4785c-.091-1.6406-.433-3.2357-1.025-4.7851-.57-1.5495-1.481-2.8256-2.734-3.8282-1.254-1.0026-2.963-1.5039-5.127-1.5039-1.436 0-2.757.3076-3.965.9229-1.208.5924-2.245 1.4811-3.111 2.666-.865 1.1849-1.538 2.6318-2.016 4.3408-.479 1.709-.718 3.68-.718 5.9131v1.4355c0 1.7546.239 3.4066.718 4.9561.501 1.5267 1.219 2.8711 2.153 4.0332.957 1.1621 2.108 2.0736 3.452 2.7344 1.368.6608 2.917.9912 4.649.9912 2.233 0 4.124-.4557 5.674-1.3672 1.549-.9115 2.905-2.1305 4.067-3.6572l3.828 3.042c-.797 1.2077-1.811 2.3584-3.042 3.4521-1.23 1.0938-2.746 1.9824-4.546 2.666-1.777.6836-3.885 1.0254-6.323 1.0254Zm28.643-53.1836v52.5h-6.358v-52.5h6.358Zm9.775 2.7344h18.56c3.805 0 7.075.5697 9.809 1.709 2.757 1.1393 4.876 2.8255 6.358 5.0586 1.481 2.2331 2.221 4.9788 2.221 8.2373 0 2.666-.456 4.956-1.367 6.8701-.889 1.8913-2.153 3.4749-3.794 4.751-1.618 1.2532-3.52 2.2558-5.708 3.0078l-3.247 1.709h-16.133l-.068-7.9981h11.997c1.8 0 3.293-.319 4.477-.957 1.185-.638 2.074-1.5267 2.666-2.666.616-1.1393.923-2.461.923-3.9649 0-1.595-.296-2.9736-.888-4.1357-.593-1.1621-1.493-2.0508-2.701-2.666-1.207-.6152-2.723-.9229-4.545-.9229h-8.306v41.7334h-10.254V41.0523Zm27.822 49.7656-11.347-22.1826 10.835-.0683 11.484 21.7724v.4785h-10.972Zm33.428.6836c-2.871 0-5.446-.4557-7.725-1.3672-2.278-.9342-4.215-2.2216-5.81-3.8623-1.572-1.6406-2.78-3.5433-3.623-5.708-.843-2.1875-1.265-4.5117-1.265-6.9726v-1.3672c0-2.8028.399-5.3662 1.196-7.6904.798-2.3243 1.937-4.3409 3.418-6.0499 1.504-1.7089 3.327-3.0192 5.469-3.9306 2.142-.9343 4.557-1.4014 7.246-1.4014 2.621 0 4.945.433 6.973 1.2988 2.028.8659 3.725 2.0964 5.093 3.6915 1.39 1.595 2.438 3.5091 3.144 5.7421.707 2.2103 1.06 4.6713 1.06 7.3829v4.1015h-29.395v-6.5625h19.722v-.7519c0-1.3672-.251-2.5863-.752-3.6573-.479-1.0937-1.208-1.9596-2.188-2.5976-.979-.638-2.233-.9571-3.759-.9571-1.299 0-2.416.2849-3.35.8545-.934.5697-1.698 1.3672-2.29 2.3926-.57 1.0254-1.003 2.2331-1.299 3.6231-.273 1.3672-.41 2.8711-.41 4.5117v1.3672c0 1.4811.205 2.8483.615 4.1015.433 1.2533 1.037 2.3356 1.812 3.2471.797.9115 1.754 1.6178 2.871 2.1191 1.139.5013 2.427.752 3.862.752 1.778 0 3.43-.3418 4.956-1.0254 1.55-.7064 2.883-1.7659 3.999-3.1787l4.785 5.1953c-.774 1.1165-1.834 2.1875-3.178 3.2129-1.322 1.0254-2.917 1.8685-4.785 2.5293-1.869.638-3.999.957-6.392.957Zm30.625-30.5566v44.0921h-9.844V53.8355h9.126l.718 7.1094Zm23.413 10.9717v.7177c0 2.6888-.319 5.184-.957 7.4854-.615 2.3014-1.527 4.3066-2.734 6.0156-1.208 1.6862-2.712 3.0078-4.512 3.9649-1.777.9342-3.828 1.4013-6.152 1.4013-2.256 0-4.216-.4557-5.879-1.3672-1.664-.9114-3.065-2.1875-4.204-3.8281-1.117-1.6634-2.017-3.5889-2.701-5.7764-.683-2.1875-1.207-4.5345-1.572-7.041v-1.8799c.365-2.6888.889-5.1497 1.572-7.3828.684-2.2558 1.584-4.2041 2.701-5.8447 1.139-1.6634 2.529-2.9508 4.169-3.8623 1.664-.9115 3.612-1.3672 5.845-1.3672 2.347 0 4.409.4444 6.187 1.333 1.8.8887 3.304 2.1647 4.511 3.8281 1.231 1.6635 2.154 3.6459 2.769 5.9473.638 2.3014.957 4.8535.957 7.6563Zm-9.878.7177v-.7177c0-1.5723-.137-3.0192-.41-4.3409-.251-1.3444-.661-2.5179-1.231-3.5205-.546-1.0026-1.276-1.7773-2.187-2.3242-.889-.5696-1.971-.8545-3.247-.8545-1.344 0-2.495.2165-3.452.6494-.934.433-1.698 1.0596-2.29 1.8799-.593.8203-1.037 1.8002-1.333 2.9395-.296 1.1393-.479 2.4267-.547 3.8623v4.751c.114 1.6862.433 3.2015.957 4.5459.524 1.3216 1.333 2.3697 2.427 3.1445 1.093.7747 2.529 1.1621 4.306 1.1621 1.299 0 2.393-.2848 3.282-.8545.888-.5924 1.606-1.4014 2.153-2.4268.57-1.0253.968-2.2102 1.196-3.5546.251-1.3444.376-2.7914.376-4.3409Zm14.424.0684v-.7178c0-2.7116.387-5.2067 1.162-7.4853.775-2.3015 1.903-4.2953 3.384-5.9815 1.481-1.6862 3.304-2.9964 5.469-3.9306 2.164-.9571 4.648-1.4356 7.451-1.4356s5.298.4785 7.485 1.4356c2.188.9342 4.022 2.2444 5.503 3.9306 1.504 1.6862 2.643 3.68 3.418 5.9815.775 2.2786 1.162 4.7737 1.162 7.4853v.7178c0 2.6888-.387 5.1839-1.162 7.4853-.775 2.2787-1.914 4.2725-3.418 5.9815-1.481 1.6862-3.304 2.9964-5.469 3.9307-2.164.9342-4.648 1.4013-7.451 1.4013s-5.298-.4671-7.485-1.4013c-2.165-.9343-3.999-2.2445-5.503-3.9307-1.481-1.709-2.609-3.7028-3.384-5.9815-.775-2.3014-1.162-4.7965-1.162-7.4853Zm9.844-.7178v.7178c0 1.5495.136 2.9964.41 4.3408.273 1.3444.706 2.5293 1.299 3.5547.615 1.0026 1.412 1.7887 2.392 2.3584.98.5697 2.176.8545 3.589.8545 1.367 0 2.541-.2848 3.521-.8545.979-.5697 1.766-1.3558 2.358-2.3584.592-1.0254 1.025-2.2103 1.299-3.5547.296-1.3444.444-2.7913.444-4.3408v-.7178c0-1.5039-.148-2.9166-.444-4.2383-.274-1.3444-.718-2.5293-1.333-3.5546-.593-1.0482-1.379-1.8685-2.359-2.461-.979-.5924-2.164-.8887-3.554-.8887-1.39 0-2.575.2963-3.555.8887-.957.5925-1.743 1.4128-2.358 2.461-.593 1.0253-1.026 2.2102-1.299 3.5546-.274 1.3217-.41 2.7344-.41 4.2383Zm41.084-10.083v28.916h-9.844V53.8355h9.263l.581 8.0664Zm11.142-8.3056-.171 9.1259c-.478-.0683-1.059-.1253-1.743-.1709-.661-.0683-1.264-.1025-1.811-.1025-1.39 0-2.598.1823-3.623.5469-1.003.3418-1.846.8545-2.53 1.5381-.66.6835-1.162 1.5153-1.504 2.4951-.319.9798-.501 2.0963-.546 3.3496l-1.983-.6153c0-2.3925.239-4.5914.718-6.5966.478-2.028 1.173-3.794 2.085-5.2979.934-1.5039 2.073-2.666 3.418-3.4863 1.344-.8203 2.882-1.2305 4.614-1.2305.547 0 1.105.0456 1.675.1367.57.0684 1.037.1709 1.401.3077Zm24.473.2392v6.9727h-21.533v-6.9727h21.533Zm-16.201-9.126h9.843v34.9659c0 1.0709.137 1.8912.411 2.4609.296.5697.729.9684 1.298 1.1963.57.2051 1.288.3076 2.154.3076.615 0 1.162-.0228 1.64-.0684.502-.0683.923-.1367 1.265-.205l.034 7.2461c-.843.2734-1.754.4899-2.734.6494-.98.1595-2.062.2392-3.247.2392-2.165 0-4.056-.3532-5.674-1.0595-1.595-.7292-2.826-1.8913-3.691-3.4864-.866-1.595-1.299-3.6914-1.299-6.289V44.7095Z"/><defs><linearGradient id="a" x1="128.96" x2="88.0634" y1="90.8578" y2="42.4909" gradientUnits="userSpaceOnUse"><stop stop-color="#D70000"/><stop offset=".51" stop-color="red"/><stop offset="1" stop-color="#FF526E"/></linearGradient><linearGradient id="b" x1="118.517" x2="65.3317" y1="61.3183" y2="21.729" gradientUnits="userSpaceOnUse"><stop stop-color="#D70000"/><stop offset=".51" stop-color="red"/><stop offset="1" stop-color="#FF526E"/></linearGradient><linearGradient id="c" x1="82.7081" x2="82.7081" y1="126.237" y2="68.1967" gradientUnits="userSpaceOnUse"><stop stop-color="#D70000"/><stop offset=".51" stop-color="red"/><stop offset="1" stop-color="#FF526E"/></linearGradient><linearGradient id="d" x1="21.5676" x2="62.9661" y1="64.5966" y2="-.32258" gradientUnits="userSpaceOnUse"><stop stop-color="#D70000"/><stop offset=".51" stop-color="red"/><stop offset="1" stop-color="#FF526E"/></linearGradient><linearGradient id="e" x1="25.9029" x2="69.863" y1="110.742" y2="77.3331" gradientUnits="userSpaceOnUse"><stop stop-color="#D70000"/><stop offset=".51" stop-color="red"/><stop offset="1" stop-color="#FF526E"/></linearGradient><linearGradient id="f" x1="3.58279" x2="57.9329" y1="55.6212" y2="61.2998" gradientUnits="userSpaceOnUse"><stop stop-color="#D70000"/><stop offset=".51" stop-color="red"/><stop offset="1" stop-color="#FF526E"/></linearGradient></defs></svg>
